<svg width="47" height="46" viewBox="0 0 47 46" fill="none" xmlns="http://www.w3.org/2000/svg">
<rect x="0.5" width="46" height="46" rx="23" fill="#F5F5F5"/>
<path d="M31.0736 23.7628C31.0617 21.5655 32.0555 19.9071 34.0672 18.6858C32.9416 17.0752 31.2413 16.1892 28.9961 16.0155C26.8707 15.8479 24.5477 17.2549 23.6976 17.2549C22.7995 17.2549 20.74 16.0754 19.1235 16.0754C15.7827 16.1293 12.2324 18.7397 12.2324 24.0502C12.2324 25.6188 12.5197 27.2393 13.0945 28.9117C13.8608 31.1089 16.6269 36.4973 19.5126 36.4075C21.0214 36.3715 22.0871 35.3358 24.0508 35.3358C25.9547 35.3358 26.9426 36.4075 28.6249 36.4075C31.5346 36.3655 34.0372 31.4681 34.7676 29.2649C30.8641 27.4269 31.0736 23.8765 31.0736 23.7628ZM27.685 13.932C29.3194 11.9922 29.1697 10.2261 29.1218 9.59143C27.679 9.67525 26.0086 10.5733 25.0566 11.6809C24.0089 12.8664 23.3922 14.3332 23.5239 15.9856C25.0866 16.1053 26.5115 15.3031 27.685 13.932Z" fill="black"/>
</svg>
